<svg id="Layer_1" data-name="Layer 1" xmlns="http://www.w3.org/2000/svg" viewBox="0 0 590.11 455.45"><defs><style>.cls-1{font-size:356px;}.cls-1,.cls-8{fill:#231f20;font-family:Amphion-Regular, Amphion;}.cls-2{fill:#fff;}.cls-3{fill:#030202;}.cls-4,.cls-7{fill:#020202;}.cls-4{stroke:#030202;}.cls-4,.cls-5,.cls-6,.cls-9{stroke-miterlimit:10;}.cls-4,.cls-5,.cls-6{stroke-width:4px;}.cls-5,.cls-9{fill:none;}.cls-5,.cls-6{stroke:#020202;}.cls-6{fill:#070808;}.cls-8{font-size:22px;}.cls-9{stroke:#050606;}</style></defs><text x="-29.57" y="-236.24"/><text class="cls-1" transform="translate(143.74 301.48)">R</text><text class="cls-1" transform="translate(190.51 372.5)">B</text><polygon class="cls-2" points="212.47 186.88 129.43 186.88 129.43 322.72 222.07 320.8 222.07 186.88 212.47 186.88"/><path class="cls-3" d="M186.45,376.48c.61-.78,1.31-1.72,1.94-2.62s1.29-1.83,1.9-2.77q1.86-2.8,3.49-5.73a58.19,58.19,0,0,0,5.18-12,14.27,14.27,0,0,0,.41-1.52c.11-.5.24-1,.34-1.52a28.58,28.58,0,0,0,.38-3,23.13,23.13,0,0,0,0-2.88,15.93,15.93,0,0,0-.5-2.65,10.37,10.37,0,0,0-2.44-4.47l-.42-.5c-.15-.16-.34-.28-.51-.43l-1-.88-1.2-.75a6.63,6.63,0,0,0-1.25-.71,36.93,36.93,0,0,0-12.13-3.21c-2.2-.14-4.49-.43-6.51-.36a31.46,31.46,0,0,0-6.2.75,29.9,29.9,0,0,0-5.87,2c-2,1-4,2-5.93,3.11a61.59,61.59,0,0,0-10.68,7.82,41.26,41.26,0,0,0-8,10.05,30.69,30.69,0,0,0-3.73,12A37.09,37.09,0,0,0,134.81,379a59.89,59.89,0,0,0,5,12.3A112.76,112.76,0,0,0,156,413.23a232.19,232.19,0,0,0,20.19,19.07l.12.1.07.07q17.43,17.67,34.11,35.95,8.34,9.16,16.42,18.58l4,4.74,3.93,4.81.25.3.12.15-.12-.12c-.18-.14-.13-.09-.09-.06l.09.07.19.15.37.3a15.21,15.21,0,0,1,1.28,1.25,25.61,25.61,0,0,1,2.13,2.61,51.89,51.89,0,0,1,3.38,5.51,89.23,89.23,0,0,1,8.37,23.8,78.36,78.36,0,0,1,1.21,25.2,57.44,57.44,0,0,1-2.95,12.37,48.37,48.37,0,0,1-5.91,11.31,50.85,50.85,0,0,1-19.33,16.18,83.12,83.12,0,0,1-23.94,7.3,147.66,147.66,0,0,1-24.81,1.6,446.15,446.15,0,0,1-49.46-2.16,404.77,404.77,0,0,1-48.87-7.67c-16.08-3.63-32.05-8-47.22-14.51,15.26,6.26,31.27,10.42,47.37,13.81a406.21,406.21,0,0,0,48.85,6.95,448,448,0,0,0,49.29,1.43,144.24,144.24,0,0,0,24.44-1.93A80.33,80.33,0,0,0,222.58,593a48,48,0,0,0,18-15.46,48.56,48.56,0,0,0,7.94-22.27,75.15,75.15,0,0,0-1.5-23.95,85.45,85.45,0,0,0-8.3-22.56,44.2,44.2,0,0,0-3.15-5,22.64,22.64,0,0,0-1.8-2.16c-.31-.33-.63-.61-.94-.89l-.64-.51a2.92,2.92,0,0,1-.38-.4l-.13-.15-.24-.29-4-4.7-4-4.64c-5.42-6.17-11-12.23-16.58-18.23q-16.87-18-34.47-35.28l.2.18a236.4,236.4,0,0,1-21-19.3,118.57,118.57,0,0,1-17.5-23,66.9,66.9,0,0,1-5.76-13.67,43.91,43.91,0,0,1-1.54-15.14,37.86,37.86,0,0,1,4.36-14.78,48.82,48.82,0,0,1,9.29-12,68.23,68.23,0,0,1,11.87-9c2.11-1.27,4.26-2.45,6.48-3.53a37.13,37.13,0,0,1,7.4-2.65,38.88,38.88,0,0,1,7.74-1.07c2.68-.1,5.06.18,7.55.3a45,45,0,0,1,15,3.83,12.91,12.91,0,0,1,1.82,1c.6.37,1.2.73,1.79,1.12l1.68,1.37c.28.24.57.45.82.71l.75.82a18.09,18.09,0,0,1,1.44,1.71l1.22,1.88c.38.64.65,1.34,1,2,.14.34.32.68.43,1l.31,1a24.45,24.45,0,0,1,.86,4.25,30.33,30.33,0,0,1,0,4.15,33,33,0,0,1-.45,4c-.12.65-.27,1.28-.4,1.92s-.29,1.27-.47,1.89a67.68,67.68,0,0,1-5.74,13.91c-1.18,2.16-2.42,4.28-3.74,6.35-.66,1-1.34,2.05-2,3.07s-1.39,2-2.22,3.06Z" transform="translate(-29.57 -236.24)"/><circle class="cls-4" cx="155.23" cy="134.86" r="11.49"/><path class="cls-5" d="M121.68,343s-30.6,52.92,49.68,106.92" transform="translate(-29.57 -236.24)"/><path class="cls-6" d="M127.12,439.06S105.2,476.18,147,497.34L137,468.2l17.14,26.68S175.73,449.9,127.12,439.06Z" transform="translate(-29.57 -236.24)"/><path class="cls-6" d="M172.24,457.68S150.16,501.19,191.17,537l-9.46-39.66,16.62,37.95S220.14,481.55,172.24,457.68Z" transform="translate(-29.57 -236.24)"/><path class="cls-6" d="M225.38,502.79S187.73,535.86,209,588l8.19-42.61-1.15,44S259.92,559,225.38,502.79Z" transform="translate(-29.57 -236.24)"/><circle class="cls-6" cx="93.64" cy="109.56" r="3.84"/><circle class="cls-6" cx="140.58" cy="209.8" r="3.84"/><path class="cls-7" d="M119.37,420.94c-5.77,9-9.72,18.58-10.74,28.16a41.53,41.53,0,0,0,.94,14,42.61,42.61,0,0,0,2.18,6.67c.51,1.07.91,2.17,1.45,3.23l1.72,3.13a60.73,60.73,0,0,0,4.07,6c.75,1,1.4,2,2.25,2.9s1.63,1.85,2.42,2.81,1.71,1.8,2.56,2.71,1.69,1.84,2.63,2.69l2.78,2.58,1.37,1.32,1.46,1.24c7.67,6.76,16.1,12.89,24.54,19.5a106,106,0,0,1-29.29-13.24l-1.72-1.1-1.65-1.2-3.29-2.47c-1.11-.8-2.12-1.76-3.16-2.66s-2.1-1.79-3.07-2.8a67.42,67.42,0,0,1-10.51-13.2,48.34,48.34,0,0,1-6-16.24,42.15,42.15,0,0,1,.63-17.3,47,47,0,0,1,7-15.25,49.11,49.11,0,0,1,5.24-6.32A38,38,0,0,1,119.37,420.94Z" transform="translate(-29.57 -236.24)"/><path class="cls-7" d="M80.64,449.88a117.32,117.32,0,0,0,3.84,18.82,107.28,107.28,0,0,0,6.63,17.51,92.15,92.15,0,0,0,21.8,29.12c1.13,1,2.34,1.95,3.5,2.93s2.4,1.87,3.64,2.77c2.39,1.89,5.06,3.42,7.62,5.12,1.32.78,2.68,1.51,4,2.27l2,1.14,2.09,1,4.18,2.06,4.3,1.84c11.53,4.91,23.84,8.36,36.5,11.59a111.9,111.9,0,0,1-39.12-4.18l-4.79-1.45-4.69-1.82-2.35-.92c-.77-.34-1.52-.72-2.28-1.08-1.52-.74-3-1.45-4.56-2.22a100,100,0,0,1-8.66-5.32,50.55,50.55,0,0,1-4.11-3c-1.31-1.09-2.68-2.11-4-3.25a80.74,80.74,0,0,1-26.6-53.22,73.07,73.07,0,0,1-.23-9.92A54.36,54.36,0,0,1,80.64,449.88Z" transform="translate(-29.57 -236.24)"/><path class="cls-7" d="M61.2,490.67a121,121,0,0,0,9,18.51,123.29,123.29,0,0,0,11.63,16.45A114.25,114.25,0,0,0,112,551.05c2.9,1.57,5.76,3.23,8.8,4.56,2.93,1.53,6.07,2.64,9.12,4l4.71,1.68,2.35.84,2.41.72,4.81,1.45,4.9,1.22c13.1,3.26,26.7,5,40.61,6.44a128.14,128.14,0,0,1-42.07,1.29l-5.28-.77-5.25-1.11-2.62-.57-2.58-.74c-1.73-.5-3.46-1-5.17-1.51-3.38-1.24-6.8-2.39-10.07-3.93s-6.49-3.18-9.68-4.88a96,96,0,0,1-31.44-29.38,92.87,92.87,0,0,1-9.77-19,83.18,83.18,0,0,1-3.05-10.18A57,57,0,0,1,61.2,490.67Z" transform="translate(-29.57 -236.24)"/><path class="cls-7" d="M35.62,537A147.2,147.2,0,0,0,50.9,552.21,162.05,162.05,0,0,0,67.81,565a152.82,152.82,0,0,0,18.26,10.31c3.13,1.53,6.34,2.89,9.57,4.18l4.89,1.85c1.64.57,3.31,1.08,5,1.63s3.33,1,5,1.48,3.34,1,5,1.32l5.1,1.2c1.72.31,3.44.61,5.16.95s3.45.58,5.18.82,3.47.54,5.22.71l5.25.5c1.75.23,3.51.28,5.28.38,14.11.86,28.42.21,43-1a137.17,137.17,0,0,1-43,8.84c-3.71.27-7.42.11-11.15,0-1.86,0-3.71-.23-5.57-.37s-3.73-.28-5.57-.57a125,125,0,0,1-21.92-4.8,118.82,118.82,0,0,1-39.31-21.19,113.05,113.05,0,0,1-15.77-15.7,99.45,99.45,0,0,1-6.51-8.94A66.1,66.1,0,0,1,35.62,537Z" transform="translate(-29.57 -236.24)"/><text class="cls-8" transform="translate(81.64 394.31)"><tspan xml:space="preserve">     R  E  N  U     B  A  L  A</tspan></text><line class="cls-9" x1="381.43" y1="380.83" x2="436.92" y2="380.83"/><line class="cls-9" x1="381.43" y1="387.15" x2="422.47" y2="387.15"/><line class="cls-9" x1="381.43" y1="393.48" x2="409.18" y2="393.48"/><line class="cls-9" x1="111.64" y1="380.83" x2="56.15" y2="380.83"/><line class="cls-9" x1="111.64" y1="387.15" x2="70.6" y2="387.15"/><line class="cls-9" x1="111.64" y1="393.48" x2="83.89" y2="393.48"/></svg>